<?xml version="1.0" encoding="UTF-8" standalone="no"?>
<!-- Created with Inkscape (http://www.inkscape.org/) -->

<svg
   width="287.0491mm"
   height="22.774628mm"
   viewBox="0 0 287.0491 22.774628"
   version="1.1"
   id="svg1"
   xml:space="preserve"
   xmlns:inkscape="http://www.inkscape.org/namespaces/inkscape"
   xmlns:sodipodi="http://sodipodi.sourceforge.net/DTD/sodipodi-0.dtd"
   xmlns="http://www.w3.org/2000/svg"
   xmlns:svg="http://www.w3.org/2000/svg"><sodipodi:namedview
     id="namedview1"
     pagecolor="#ffffff"
     bordercolor="#000000"
     borderopacity="0.25"
     inkscape:showpageshadow="2"
     inkscape:pageopacity="0.0"
     inkscape:pagecheckerboard="0"
     inkscape:deskcolor="#d1d1d1"
     inkscape:document-units="mm" /><defs
     id="defs1" /><g
     inkscape:label="Layer 1"
     inkscape:groupmode="layer"
     id="layer1"
     transform="translate(37.881345,-233.71626)"><path
       style="fill:#000000"
       d="m -37.881346,245.09334 v -11.37709 h 3.00279 3.00279 l 1.27411,2.71198 c 0.70076,1.49159 2.087942,4.40993 3.082626,6.4852 0.994685,2.07528 1.812304,3.86121 1.816932,3.96875 0.0046,0.10754 0.179242,0.4212 0.38803,0.69702 0.352863,0.46616 0.443567,0.36361 1.287129,-1.4552 1.743554,-3.7593 5.195149,-10.95764 5.549256,-11.57304 0.196375,-0.34128 0.435261,-0.60917 0.530858,-0.59532 0.0956,0.0139 1.364438,0.0252 2.819646,0.0252 h 2.645833 v 11.24479 11.24479 h -2.248958 -2.248958 v -7.86941 -7.86941 l -2.860516,5.95118 c -1.573283,3.27315 -3.016478,6.33813 -3.207099,6.81108 -0.335283,0.83185 -0.396764,0.85989 -1.885548,0.85989 h -1.538964 l -3.43551,-6.94531 -3.43551,-6.94531 -0.02051,8.00364 -0.02051,8.00365 h -2.248958 -2.248959 z m 30.1625,0.13229 v -11.24479 h 2.5135417 2.5135416 v 11.24479 11.24479 H -5.2053043 -7.718846 Z m 9.7895832,0.0308 v -11.21397 l 1.7079245,-0.1829 c 0.9393585,-0.1006 1.8812286,-0.0847 2.0930447,0.0353 0.2118162,0.12003 1.913797,2.30338 3.7821796,4.85189 1.868383,2.54852 4.230497,5.6995 5.249143,7.00219 l 1.852083,2.36851 0.07047,-7.06833 0.07047,-7.06832 h 2.26355 2.263549 l -0.08506,11.17864 -0.08506,11.17865 -2.157362,0.0764 -2.157361,0.0764 -1.672092,-2.3254 c -0.91965,-1.27896 -2.032431,-2.81293 -2.472846,-3.40882 -0.440416,-0.59589 -1.991381,-2.71363 -3.4465892,-4.7061 l -2.6458333,-3.62266 -0.1742143,4.44151 c -0.095818,2.44283 -0.1208222,5.60237 -0.055565,7.0212 l 0.118649,2.57969 H 4.3302761 2.0707372 Z m 23.8124998,0.38769 c 0,-5.95445 0.07227,-11.01461 0.160599,-11.24479 0.127225,-0.33154 0.580834,-0.41783 2.182812,-0.41524 l 2.022214,0.003 0.629051,0.98891 c 0.952165,1.49687 9.402258,12.74406 9.582243,12.7541 0.187218,0.0104 0.504331,-6.83144 0.504331,-10.88121 v -2.86835 h 2.116666 2.116667 v 11.24479 11.24479 h -2.185799 -2.185799 l -0.658472,-1.0424 c -0.362159,-0.57332 -2.082815,-2.9248 -3.82368,-5.22552 -1.740864,-2.30072 -3.794693,-5.05884 -4.564062,-6.12916 l -1.398855,-1.94603 v 7.17155 7.17156 h -2.248958 -2.248958 z m 24.095042,0.0772 c 0.02698,-5.91197 0.107396,-10.97213 0.178699,-11.24479 0.114434,-0.43759 0.404866,-0.49575 2.475664,-0.49575 h 2.346022 l -0.02889,9.32656 c -0.01589,5.12961 -0.08689,10.18976 -0.157779,11.24479 l -0.128885,1.91823 H 52.296163 49.929221 Z M 63.983236,247.21 v -9.26041 H 60.940528 57.89782 v -1.98438 -1.98437 h 8.700426 8.700427 l 0.18337,1.71228 c 0.100854,0.94176 0.107697,1.83472 0.01521,1.98438 -0.10001,0.16182 -1.448573,0.27209 -3.327546,0.27209 H 69.01032 v 9.26041 9.26042 h -2.513542 -2.513542 z m 26.326042,8.7164 c -1.465715,-0.35442 -4.482218,-1.93313 -4.571482,-2.39253 -0.04046,-0.20824 0.301057,-0.88802 0.75893,-1.51063 0.79553,-1.08175 0.857538,-1.11349 1.396482,-0.71471 2.504551,1.85318 5.766739,2.31954 7.285564,1.04153 1.088302,-0.91574 1.494094,-2.42666 0.981331,-3.65388 -0.462622,-1.10721 -1.002817,-1.41678 -3.590398,-2.05757 -4.201292,-1.04041 -5.853716,-2.57907 -6.048092,-5.6317 -0.191318,-3.00458 1.079747,-5.07157 3.848513,-6.25841 2.142635,-0.91844 5.508046,-0.55396 8.043683,0.87115 0.998618,0.56126 1.050481,0.65025 0.891087,1.52909 -0.09308,0.51322 -0.385489,1.15444 -0.649788,1.42492 -0.46796,0.4789 -0.510936,0.47396 -1.641064,-0.18834 -2.387828,-1.39936 -5.245438,-1.49133 -6.408418,-0.20625 -0.521732,0.57651 -0.829116,2.11216 -0.599957,2.9973 0.222502,0.85942 1.588533,1.6609 3.706057,2.1744 3.697886,0.89676 5.799451,2.53846 6.137801,4.79474 0.666903,4.44723 -2.072445,7.66224 -6.762124,7.9363 -0.945886,0.0553 -2.196042,-0.0147 -2.778125,-0.15541 z m 58.208332,0.0246 c -2.68163,-0.58346 -4.27989,-1.75691 -5.3438,-3.92346 l -0.74162,-1.51022 v -7.9375 -7.9375 h 1.7198 1.71979 l 0.13229,7.72032 c 0.12462,7.27296 0.1639,7.76261 0.6778,8.45032 1.03091,1.37955 1.86183,1.79773 3.78837,1.90659 2.09376,0.11831 3.08497,-0.27076 4.09313,-1.60663 1.08635,-1.4395 1.22724,-2.56196 1.22881,-9.78987 l 0.001,-6.81302 h 1.71475 c 1.61438,0 1.7246,0.0392 1.88296,0.67021 0.0925,0.36862 0.11431,3.79166 0.0484,7.60677 -0.13105,7.58905 -0.3034,8.53644 -1.9443,10.68778 -1.48296,1.94425 -5.86627,3.15323 -8.97789,2.47621 z m 90.61979,-0.11304 c -1.9154,-0.42587 -3.65537,-1.35217 -4.01258,-2.13616 -0.34947,-0.76702 -0.0903,-2.34691 0.45993,-2.80355 0.33118,-0.27486 0.52824,-0.23133 1.11747,0.24685 3.1275,2.53804 7.46091,2.64052 8.61721,0.20379 1.11518,-2.35006 0.1196,-3.72529 -3.4763,-4.80195 -3.03735,-0.90943 -3.86526,-1.30783 -4.92959,-2.37216 -1.49099,-1.49099 -1.8745,-4.71292 -0.80676,-6.77771 0.97937,-1.89389 3.69399,-3.21791 6.56369,-3.20136 1.84257,0.0106 4.29503,0.81177 5.40334,1.76509 0.76722,0.65994 0.71236,0.96521 -0.44822,2.49367 l -0.48379,0.63715 -0.76105,-0.5397 c -0.96201,-0.6822 -3.05138,-1.39605 -4.08609,-1.39605 -1.91668,0 -3.42184,1.34797 -3.42184,3.06447 0,1.1939 1.4995,2.34956 3.75493,2.89393 4.71879,1.13893 6.80338,3.32008 6.51353,6.81525 -0.38766,4.67461 -4.53538,7.12432 -10.00388,5.90844 z m -129.70666,-0.49277 c -4.35409,-1.61132 -6.69285,-5.25147 -6.67168,-10.38412 0.008,-1.9446 0.13541,-2.68454 0.69474,-4.03529 1.83383,-4.42863 5.1758,-6.57792 10.13881,-6.52048 2.97368,0.0344 4.85656,0.70438 6.74088,2.39854 2.40389,2.16132 3.43559,4.57828 3.48444,8.16305 0.0368,2.69779 -0.5072,4.60595 -1.91331,6.71162 -1.93947,2.90438 -4.7445,4.27562 -8.68416,4.24525 -1.62899,-0.0126 -2.70355,-0.17661 -3.78972,-0.57857 z m 6.8077,-3.20949 c 2.67378,-1.26402 3.9231,-3.47788 3.89478,-6.9017 -0.0282,-3.4069 -1.28012,-5.87374 -3.59421,-7.08206 -1.54238,-0.80536 -4.61583,-0.80492 -6.15912,8.9e-4 -2.47914,1.29445 -3.85617,3.92401 -3.84277,7.33813 0.009,2.17675 0.51378,3.63517 1.77731,5.13032 1.75767,2.07986 5.29708,2.75631 7.92401,1.51442 z m 11.50938,-6.89902 V 234.51 h 1.71979 c 0.94589,0 1.72765,0.0298 1.73725,0.0662 0.01,0.0364 0.074,4.11427 0.14315,9.06198 l 0.12568,8.99583 4.28863,0.13229 4.28862,0.13229 v 1.45521 1.45521 l -6.15156,0.0772 -6.15156,0.0772 z m 40.10348,9.05096 c -0.0962,-0.90951 -0.15912,-4.74927 -0.1399,-8.53282 0.0192,-3.78354 0.0246,-7.17682 0.0121,-7.54062 l -0.0229,-0.66146 h -2.8446 -2.8446 l -0.0794,-1.52135 -0.0794,-1.52136 h 7.83162 7.83161 l -0.0794,1.52136 -0.0794,1.52135 -2.97656,0.0748 -2.97656,0.0748 v 9.11946 9.11946 h -1.68897 -1.68897 z m 12.55265,-8.73125 c 0.002,-5.7117 0.10257,-10.54023 0.22298,-10.73007 0.15006,-0.23659 0.7106,-0.31982 1.78189,-0.26459 l 1.56296,0.0806 0.083,6.61459 c 0.0456,3.63802 0.003,8.43028 -0.094,10.64948 l -0.177,4.03489 h -1.69193 -1.69194 z m 15.20949,10.1377 c -2.80426,-0.68194 -5.22309,-2.56995 -6.46277,-5.04447 -1.10782,-2.21135 -1.40748,-3.65338 -1.30356,-6.27322 0.0829,-2.08948 0.20586,-2.58267 1.08981,-4.37029 1.79028,-3.62052 4.62254,-5.4723 8.72061,-5.70169 3.69661,-0.20692 7.20923,1.32661 9.25861,4.04207 1.49812,1.98504 1.92647,3.4852 1.92647,6.74688 0,3.87162 -0.64854,5.57537 -3.02694,7.95189 -1.46184,1.46068 -2.0181,1.8258 -3.52705,2.3151 -1.83349,0.59454 -4.95993,0.75085 -6.67518,0.33373 z m 5.58115,-3.43138 c 2.69106,-1.22215 3.87711,-3.3929 3.91718,-7.16934 0.0238,-2.24227 -0.0526,-2.67488 -0.70747,-4.00848 -1.19853,-2.4406 -3.21323,-3.6363 -6.14502,-3.64702 -2.74023,-0.01 -4.48452,1.11626 -5.91461,3.81904 -0.61496,1.16223 -0.69998,1.62821 -0.69998,3.83646 0,2.21983 0.0869,2.69056 0.74394,4.02851 0.74512,1.51737 1.49935,2.23185 3.31295,3.13837 1.31572,0.65766 4.04764,0.65888 5.49301,0.002 z m 11.54766,-7.1032 0.0691,-10.78177 1.20383,-0.0785 1.20383,-0.0785 1.98531,2.59202 c 5.22354,6.81987 8.64835,11.40146 9.1071,12.18317 0.27756,0.47294 0.59804,0.8599 0.71218,0.8599 0.11415,0 0.20754,-3.45282 0.20754,-7.67292 V 234.51 h 1.5905 1.5905 l -0.0691,10.64948 -0.0691,10.64948 h -1.5645 -1.56449 l -2.0486,-2.77812 c -1.12673,-1.52797 -3.57787,-4.88506 -5.44696,-7.4602 -1.8691,-2.57514 -3.4579,-4.68859 -3.53066,-4.69655 -0.0728,-0.008 -0.0973,3.37889 -0.0545,7.52634 l 0.0778,7.54082 h -1.73438 -1.73438 z"
       id="path1"
       inkscape:export-filename="min-sol-shield.svg"
       inkscape:export-xdpi="96"
       inkscape:export-ydpi="96"
       sodipodi:nodetypes="ccccsssssscscccccccssscccccccccccccccccccsssscccccccccssscssccccssccssscccccccssscccccsssscsscccsccccccccssscccccccsssssssssssssssssccscccccssssccsscsccssssssssssscssssssssssssssssssscssccscscccccccccsccccccccccccccccccsscccccccsssssssssscsssssssccccccsssscccccccsssscccc" /></g></svg>
